<?xml version="1.0" standalone="no"?>
<!DOCTYPE svg PUBLIC "-//W3C//DTD SVG 20010904//EN"
 "http://www.w3.org/TR/2001/REC-SVG-20010904/DTD/svg10.dtd">
<svg version="1.0" xmlns="http://www.w3.org/2000/svg"
 width="16.000000pt" height="16.000000pt" viewBox="0 0 16.000000 16.000000"
 preserveAspectRatio="xMidYMid meet">
<metadata>
Created by potrace 1.11, written by Peter Selinger 2001-2013
</metadata>
<g transform="translate(0.000000,16.000000) scale(0.004878,-0.004878)"
fill="#000000" stroke="none">
<path d="M390 3066 c-50 -25 -85 -69 -100 -126 -7 -25 -9 -485 -8 -1331 3
-1287 3 -1294 24 -1334 11 -21 42 -54 68 -72 l48 -33 1217 0 1218 0 46 31 c32
21 54 46 72 83 l25 52 -2 1304 c-3 1224 -4 1307 -21 1337 -9 18 -30 44 -45 58
-61 58 9 55 -1296 55 l-1201 -1 -45 -23z m2346 -202 c50 -33 54 -55 54 -296 0
-239 -3 -255 -52 -291 -26 -19 -44 -20 -1070 -19 -574 0 -1058 1 -1076 1 -25
1 -43 10 -68 35 l-34 34 0 240 0 241 34 35 33 36 1077 0 c983 0 1079 -1 1102
-16z m-1985 -825 c19 -7 49 -23 67 -36 119 -88 114 -255 -10 -339 -36 -24 -53
-29 -108 -29 -58 0 -70 4 -114 34 -54 38 -96 112 -96 171 1 98 106 205 206
209 12 1 36 -4 55 -10z m660 -16 c133 -68 161 -230 57 -330 -107 -103 -267
-73 -329 62 -51 110 8 238 130 281 54 20 82 17 142 -13z m628 2 c144 -74 162
-256 34 -349 -87 -64 -178 -59 -259 16 -93 85 -94 199 -5 288 26 25 62 51 81
57 42 14 110 9 149 -12z m594 14 c55 -15 132 -93 147 -148 22 -83 -15 -175
-92 -227 -36 -24 -53 -29 -108 -29 -59 0 -70 3 -115 35 -119 86 -125 228 -14
323 62 53 111 66 182 46z m-1858 -638 c129 -59 172 -211 88 -312 -47 -55 -99
-81 -163 -81 -87 0 -153 44 -191 127 -39 84 -10 183 68 239 71 50 130 58 198
27z m608 8 c21 -5 53 -24 73 -41 108 -95 98 -246 -22 -329 -122 -84 -297 2
-312 151 -6 66 18 129 65 171 65 56 119 70 196 48z m679 -26 c143 -98 126
-279 -32 -363 -42 -23 -131 -16 -178 14 -83 52 -124 141 -102 220 16 57 72
123 124 148 57 26 134 19 188 -19z m593 18 c51 -23 111 -89 124 -138 7 -23 11
-168 11 -374 l0 -335 -27 -55 c-85 -168 -305 -157 -378 18 -12 29 -15 100 -15
382 0 382 2 391 66 455 63 63 146 81 219 47z m-1906 -616 c101 -35 153 -104
154 -200 0 -76 -32 -132 -100 -175 -165 -105 -377 81 -293 255 27 55 67 92
126 115 60 23 62 23 113 5z m615 4 c103 -29 166 -106 166 -204 0 -88 -37 -143
-129 -192 -55 -30 -159 -9 -216 44 -62 56 -83 159 -46 230 24 48 82 100 132
118 45 17 48 17 93 4z m641 -3 c53 -19 111 -68 135 -116 66 -130 -40 -290
-193 -290 -76 0 -141 44 -179 120 -34 69 -35 97 -3 165 27 57 72 98 133 120
48 18 59 18 107 1z"/>
</g>
</svg>
